# xmcd
#
# Track frame offsets:
# 150
# 17920
# 33649
# 47487
# 63805
# 84792
# 104917
# 123733
#
# Disc length: 1796 seconds
#
#
# Revision: 0
# Processed by: cddbd v1.5.1PL2 Copyright (c) Steve Scherf et al.
# Submitted via: FreeRIP 2.90 
#
DISCID=66070208
DTITLE=Rachel Sedacca - Date Street Sessions
DYEAR=1900
DGENRE=Country
TTITLE0=Before I am Old
TTITLE1=Wanna Be Loved Like That
TTITLE2=La Llorona
TTITLE3=The Wind Cries Mary
TTITLE4=West LA Fadeaway
TTITLE5=Zachary's Dream
TTITLE6=Killing the Blues
TTITLE7=Freight Train
EXTD=
EXTT0=
EXTT1=
EXTT2=
EXTT3=
EXTT4=
EXTT5=
EXTT6=
EXTT7=
PLAYORDER=
